<?xml version="1.0" encoding="UTF-8"?>
<svg width="104px" height="104px" viewBox="0 0 104 104" version="1.1" xmlns="http://www.w3.org/2000/svg" xmlns:xlink="http://www.w3.org/1999/xlink">
    <!-- Generator: Sketch 61.2 (89653) - https://sketch.com -->
    <title>Slice 1</title>
    <desc>Created with Sketch.</desc>
    <g id="Page-1" stroke="none" stroke-width="1" fill="none" fill-rule="evenodd">
        <g id="Group">
            <rect id="Rectangle" fill="#FDFDFD" x="0" y="0" width="104" height="104"></rect>
            <g id="group-(1)" transform="translate(23.000000, 37.000000)" fill="#E6E6E6">
                <path d="M13.59,20.56 C16.379,20.56 18.813,22.233 18.813,25.19 C18.813,28.131 16.379,29.805 13.59,29.805 C10.818,29.805 8.368,28.148 8.368,25.191 C8.368,22.233 10.802,20.56 13.59,20.56 Z M24.404,20.56 C27.192,20.56 29.626,22.233 29.626,25.19 C29.626,28.131 27.192,29.805 24.404,29.805 C21.632,29.805 19.181,28.148 19.181,25.191 C19.181,22.233 21.615,20.56 24.404,20.56 Z M40.116,15.49 L40.116,29.517 L37.04,29.517 L37.04,28.554 L37.006,28.554 C36.466,29.416 35.401,29.804 34.386,29.804 C31.818,29.804 30.009,27.658 30.009,25.174 C30.009,22.689 31.784,20.56 34.353,20.56 C35.35,20.56 36.398,20.931 37.04,21.692 L37.04,15.489 L40.116,15.489 L40.116,15.49 Z M8.304,16.773 L8.304,19.578 L4.298,19.578 L4.298,21.708 L7.932,21.708 L7.932,24.514 L4.298,24.514 L4.298,29.516 L0.985,29.516 L0.985,16.774 L8.304,16.774 L8.304,16.773 Z M13.59,23.229 C12.34,23.229 11.613,24.125 11.613,25.189 C11.613,26.289 12.34,27.133 13.59,27.133 C14.84,27.133 15.568,26.288 15.568,25.19 C15.568,24.125 14.841,23.229 13.59,23.229 Z M24.404,23.229 C23.153,23.229 22.426,24.125 22.426,25.189 C22.426,26.289 23.153,27.133 24.404,27.133 C25.654,27.133 26.381,26.288 26.381,25.19 C26.381,24.125 25.654,23.229 24.404,23.229 Z M35.164,23.229 C33.914,23.229 33.187,24.125 33.187,25.189 C33.187,26.289 33.913,27.133 35.164,27.133 C36.414,27.133 37.142,26.288 37.142,25.19 C37.142,24.125 36.415,23.229 35.164,23.229 Z M47.186,4.124 C49.772,4.124 51.563,6.287 51.563,8.772 C51.563,11.273 49.789,13.369 47.22,13.369 C46.242,13.369 45.231,13.028 44.57,12.297 C44.557,12.282 44.532,12.291 44.532,12.311 L44.532,14.907 C44.532,15.918 43.712,16.738 42.702,16.738 L41.478,16.738 C41.4658497,16.738 41.456,16.7281503 41.456,16.716 L41.456,4.433 C41.456,4.421 41.466,4.411 41.478,4.411 L44.511,4.411 C44.523,4.411 44.532,4.421 44.532,4.433 L44.532,5.37 L44.539,5.385 L44.555,5.392 C44.5622859,5.3918536 44.5690265,5.3881088 44.573,5.382 C45.132,4.526 46.176,4.124 47.186,4.124 L47.186,4.124 Z M36.504,4.124 C39.09,4.124 40.882,6.287 40.882,8.772 C40.882,11.273 39.107,13.369 36.538,13.369 C35.543,13.369 34.515,13.016 33.856,12.259 C33.854,12.257 33.851,12.259 33.851,12.261 L33.851,14.907 C33.851,15.918 33.031,16.738 32.019,16.738 L30.775,16.738 L30.775,4.411 L33.851,4.411 L33.851,5.37 L33.857,5.385 L33.873,5.392 C33.8802859,5.3918536 33.8870265,5.3881088 33.891,5.382 C34.451,4.526 35.494,4.124 36.504,4.124 L36.504,4.124 Z M4.894,0 C6.172,0 7.734,0.401 8.865,1.038 C8.875,1.043 8.879,1.056 8.874,1.067 L8.404,1.984 C8.00000012,2.76908239 7.09394768,3.1548691 6.248,2.902 C5.96242951,2.81664139 5.66605345,2.77285857 5.368,2.772 C4.76,2.772 3.948,3.127 3.948,3.837 C3.948,4.58 4.844,4.867 5.418,5.054 L6.264,5.307 C8.038,5.831 9.407,6.727 9.407,8.789 C9.407,10.056 9.103,11.358 8.089,12.219 C7.092,13.065 5.757,13.419 4.472,13.419 C2.873,13.419 1.308,12.883 0.009,11.977 C0.000330863686,11.9704237 -0.00217921874,11.9585358 0.003,11.949 L1.413,9.296 C2.241,10.023 3.222,10.614 4.353,10.614 C5.131,10.614 5.96,10.225 5.96,9.33 C5.96,8.4 4.658,8.079 3.948,7.876 C1.87,7.285 0.5,6.744 0.5,4.276 C0.5,1.69 2.343,0 4.895,0 L4.894,0 Z M24.07,4.124 C25.048,4.124 26.074,4.481 26.72,5.212 C26.733,5.227 26.758,5.218 26.758,5.198 L26.758,4.433 C26.758,4.421 26.768,4.411 26.78,4.411 L29.812,4.411 C29.824,4.411 29.834,4.421 29.834,4.433 L29.834,11.25 C29.834,12.262 29.014,13.082 28.002,13.082 L26.78,13.082 C26.7678497,13.082 26.758,13.0721503 26.758,13.06 L26.758,12.14 C26.7634935,12.1321705 26.763299,12.1216885 26.7575186,12.1140683 C26.7517383,12.106448 26.7416967,12.1034355 26.7326762,12.1066156 C26.7236558,12.1097956 26.7177235,12.1184394 26.718,12.128 C26.175,12.983 25.114,13.369 24.104,13.369 C21.535,13.369 19.727,11.223 19.727,8.738 C19.727,6.254 21.501,4.124 24.07,4.124 L24.07,4.124 Z M54.072,9.46399665 C55.322,9.462 56.052,10.357 56.0530041,11.421 C56.055,12.52 55.329,13.366 54.079,13.3680036 C52.828,13.37 52.0989907,12.527 52.0989907,11.428 C52.096,10.363 52.822,9.466 54.072,9.46399665 L54.072,9.46399665 Z M15.881,4.124 C18.213,4.124 19.143,5.594 19.143,7.724 L19.143,11.25 C19.143,12.262 18.323,13.082 17.312,13.082 L16.089,13.082 C16.0768497,13.082 16.067,13.0721503 16.067,13.06 L16.067,8.856 C16.067,8.028 16.202,6.575 14.681,6.575 C13.431,6.575 13.075,7.505 13.075,8.586 L13.075,11.25 C13.075,12.262 12.255,13.082 11.244,13.082 L10.021,13.082 C10.0151652,13.082 10.0095695,13.0796821 10.0054437,13.0755563 C10.0013179,13.0714305 9.999,13.0658348 9.999,13.06 L9.999,4.433 C9.999,4.421 10.009,4.411 10.021,4.411 L13.053,4.411 C13.065,4.411 13.075,4.421 13.075,4.433 L13.075,5.505 L13.082,5.52 L13.097,5.527 C13.1046404,5.52719327 13.1118336,5.52340736 13.116,5.517 C13.824,4.477 14.684,4.124 15.881,4.124 L15.881,4.124 Z M46.408,6.794 C45.158,6.794 44.431,7.69 44.431,8.755 C44.431,9.854 45.158,10.699 46.408,10.699 C47.659,10.699 48.386,9.854 48.386,8.755 C48.386,7.69 47.659,6.795 46.408,6.795 L46.408,6.794 Z M24.882,6.794 C23.631,6.794 22.904,7.69 22.904,8.755 C22.904,9.854 23.631,10.699 24.882,10.699 C26.132,10.699 26.859,9.854 26.859,8.755 C26.859,7.69 26.132,6.795 24.882,6.795 L24.882,6.794 Z M35.727,6.794 C34.476,6.794 33.749,7.69 33.749,8.755 C33.749,9.854 34.476,10.699 35.727,10.699 C36.977,10.699 37.704,9.854 37.704,8.755 C37.704,7.69 36.977,6.795 35.727,6.795 L35.727,6.794 Z M58.299,0.338 C58.313,0.338 58.323,0.352 58.319,0.365 L56.579,7.128 C56.366862,7.94960756 55.6255525,8.5234848 54.777,8.52300031 L53.024,8.52300031 L55.128,0.354 C55.1306665,0.344592468 55.1392222,0.338 55.149,0.338 L58.299,0.338 Z M53.773,0.338 L53.933,0.758 L54.093,0.338 L54.343,0.338 L54.343,1.048 L54.187,1.048 L54.187,0.475 L54.184,0.475 L53.978,1.048 L53.887,1.048 L53.68,0.475 L53.677,0.475 L53.677,1.048 L53.522,1.048 L53.522,0.338 L53.772,0.338 L53.773,0.338 Z M53.437,0.338 L53.437,0.475 L53.22,0.475 L53.22,1.048 L53.05,1.048 L53.05,0.475 L52.834,0.475 L52.834,0.338 L53.437,0.338 Z" id="Shape"></path>
            </g>
        </g>
    </g>
</svg>